<svg width="306" height="334" viewBox="0 0 306 334" fill="none" xmlns="http://www.w3.org/2000/svg">
<path d="M175.119 52.0029L177.62 56.333L177.62 56.333L175.119 52.0029ZM254.947 5.91089L252.447 1.58084L252.447 1.58085L254.947 5.91089ZM299.637 83.3167L302.137 87.6468L302.137 87.6468L299.637 83.3167ZM219.81 129.409L222.31 133.739L222.31 133.739L219.81 129.409ZM272.677 47.2781L277.007 44.7781L277.007 44.7781L272.677 47.2781ZM257.647 7.14577L252.739 8.09734L252.739 8.0975L257.647 7.14577ZM299.918 80.3606L296.639 84.1357L296.639 84.1358L299.918 80.3606ZM300.304 80.8282L295.974 83.328L295.974 83.3283L300.304 80.8282ZM210.248 126.846L214.578 124.346C214.536 124.275 214.493 124.204 214.448 124.134L210.248 126.846ZM257.435 6.57762L253.105 9.07761L253.105 9.07773L257.435 6.57762ZM172.557 61.565L176.888 59.065L176.888 59.065L172.557 61.565ZM40.0559 220.37L44.386 217.87L44.386 217.87L40.0559 220.37ZM7.05586 163.213L2.72572 165.713L2.72573 165.713L7.05586 163.213ZM42.7879 221.102L40.2879 216.772L40.2879 216.772L42.7879 221.102ZM7.78791 160.48L5.28791 156.15L5.28788 156.15L7.78791 160.48ZM74.7325 208.436C77.1239 207.056 77.9433 203.998 76.5626 201.606C75.1819 199.215 72.1239 198.395 69.7325 199.776L74.7325 208.436ZM52.4119 209.776C50.0205 211.157 49.2011 214.215 50.5818 216.606C51.9625 218.998 55.0205 219.817 57.4119 218.436L52.4119 209.776ZM22.3205 117.656L26.6506 115.156C25.883 113.827 24.5472 112.924 23.0274 112.706C21.5076 112.489 19.9724 112.983 18.8633 114.044L22.3205 117.656ZM5.13683 127.893L3.6124 123.131C2.17209 123.592 1.01785 124.681 0.472824 126.091C-0.0722051 127.502 0.0505405 129.084 0.806698 130.393L5.13683 127.893ZM37.2308 143.482L32.9007 145.982C33.5637 147.13 34.6558 147.968 35.9367 148.311C37.2176 148.654 38.5824 148.475 39.7308 147.812L37.2308 143.482ZM19.9103 153.482L22.4103 157.812C24.8017 156.431 25.6211 153.373 24.2404 150.982L19.9103 153.482ZM209.106 125.078L213.306 122.366C211.861 120.127 208.914 119.416 206.606 120.748L209.106 125.078ZM174.197 64.4043L176.697 68.7344C179.088 67.3537 179.908 64.2957 178.527 61.9043L174.197 64.4043ZM56.6509 310.533C55.2885 312.935 56.1312 315.987 58.5331 317.349C60.9351 318.712 63.9867 317.869 65.3491 315.467L56.6509 310.533ZM147.5 160.5L145.057 156.137C144.26 156.584 143.601 157.239 143.151 158.033L147.5 160.5ZM160 153.5L164.363 151.057C163.715 149.9 162.634 149.048 161.357 148.688C160.081 148.328 158.714 148.49 157.557 149.137L160 153.5ZM192.108 329.534C192.679 332.236 195.333 333.963 198.034 333.392C200.736 332.821 202.463 330.167 201.892 327.466L192.108 329.534ZM232.637 293.443C233.987 295.852 237.034 296.712 239.443 295.363C241.852 294.013 242.712 290.966 241.363 288.557L232.637 293.443ZM177.62 56.333L257.447 10.2409L252.447 1.58085L172.619 47.6729L177.62 56.333ZM297.137 78.9867L217.31 125.078L222.31 133.739L302.137 87.6468L297.137 78.9867ZM277.007 44.7781C269.888 32.4471 265.119 19.4148 262.556 6.19404L252.739 8.0975C255.51 22.3928 260.666 36.4735 268.347 49.7781L277.007 44.7781ZM303.196 76.5855C293.028 67.7552 284.127 57.1091 277.007 44.7781L268.347 49.7781C276.028 63.0828 285.645 74.5876 296.639 84.1357L303.196 76.5855ZM304.634 78.3285C304.252 77.6665 303.764 77.0789 303.196 76.5855L296.639 84.1358C296.379 83.9093 296.152 83.6373 295.974 83.328L304.634 78.3285ZM217.31 125.078C216.353 125.631 215.13 125.303 214.578 124.346L205.918 129.346C209.231 135.086 216.571 137.053 222.31 133.739L217.31 125.078ZM302.137 87.6468C305.4 85.763 306.518 81.591 304.634 78.3282L295.974 83.3283C295.096 81.8081 295.617 79.8643 297.137 78.9867L302.137 87.6468ZM257.447 10.2409C255.927 11.1187 253.983 10.5979 253.105 9.07761L261.765 4.07763C259.882 0.814794 255.709 -0.303035 252.447 1.58084L257.447 10.2409ZM262.556 6.1942C262.413 5.45511 262.147 4.7391 261.765 4.0775L253.105 9.07773C252.927 8.76873 252.804 8.43674 252.739 8.09734L262.556 6.1942ZM172.619 47.6729C166.88 50.9867 164.914 58.3256 168.227 64.065L176.888 59.065C176.335 58.1084 176.663 56.8853 177.62 56.333L172.619 47.6729ZM44.386 217.87L11.386 160.713L2.72573 165.713L35.7257 222.87L44.386 217.87ZM40.2879 216.772C41.7227 215.944 43.5575 216.435 44.386 217.87L35.7257 222.87C37.6587 226.218 41.9399 227.365 45.2879 225.432L40.2879 216.772ZM5.28788 156.15C1.93989 158.083 0.79272 162.364 2.72572 165.713L11.386 160.713C12.2144 162.147 11.7228 163.982 10.2879 164.811L5.28788 156.15ZM69.7325 199.776L52.4119 209.776L57.4119 218.436L74.7325 208.436L69.7325 199.776ZM18.8633 114.044C14.5803 118.143 9.38197 121.284 3.6124 123.131L6.66125 132.655C13.9069 130.336 20.4202 126.396 25.7777 121.268L18.8633 114.044ZM17.9904 120.156L32.9007 145.982L41.5609 140.982L26.6506 115.156L17.9904 120.156ZM10.2879 164.811L22.4103 157.812L17.4103 149.151L5.28791 156.15L10.2879 164.811ZM24.2404 150.982L9.46695 125.393L0.806698 130.393L15.5802 155.982L24.2404 150.982ZM206.606 120.748L40.2879 216.772L45.2879 225.432L211.606 129.409L206.606 120.748ZM214.448 124.134L213.306 122.366L204.906 127.791L206.048 129.559L214.448 124.134ZM178.527 61.9043L176.888 59.065L168.227 64.065L169.867 66.9043L178.527 61.9043ZM65.3491 315.467L151.849 162.967L143.151 158.033L56.6509 310.533L65.3491 315.467ZM149.943 164.863L162.443 157.863L157.557 149.137L145.057 156.137L149.943 164.863ZM155.108 154.534L192.108 329.534L201.892 327.466L164.892 152.466L155.108 154.534ZM155.637 155.943L232.637 293.443L241.363 288.557L164.363 151.057L155.637 155.943ZM39.7308 147.812L176.697 68.7344L171.697 60.0741L34.7308 139.151L39.7308 147.812Z" fill="black"/>
</svg>
