<svg width="308" height="300" viewBox="0 0 308 300" fill="none" xmlns="http://www.w3.org/2000/svg">
<path d="M153.797 0C68.8682 0 0 68.8562 0 153.797C0 221.75 44.0675 279.399 105.176 299.736C112.862 301.159 115.685 296.399 115.685 292.337C115.685 288.67 115.541 276.554 115.476 263.703C72.6883 273.006 63.6599 245.557 63.6599 245.557C56.6639 227.78 46.5836 223.054 46.5836 223.054C32.6302 213.508 47.6354 213.703 47.6354 213.703C63.0797 214.789 71.2119 229.553 71.2119 229.553C84.9289 253.065 107.191 246.267 115.967 242.339C117.347 232.397 121.333 225.613 125.731 221.773C91.5714 217.883 55.6603 204.695 55.6603 145.765C55.6603 128.975 61.6684 115.254 71.5074 104.484C69.9104 100.61 64.6465 84.9675 72.9971 63.7829C72.9971 63.7829 85.9119 59.6492 115.302 79.548C127.569 76.1393 140.727 74.4313 153.797 74.3734C166.868 74.4313 180.034 76.1393 192.326 79.548C221.681 59.6492 234.578 63.7829 234.578 63.7829C242.949 84.9675 237.683 100.61 236.086 104.484C245.946 115.254 251.913 128.973 251.913 145.765C251.913 204.835 215.935 217.843 181.688 221.65C187.204 226.423 192.119 235.783 192.119 250.131C192.119 270.709 191.941 287.271 191.941 292.337C191.941 296.43 194.709 301.225 202.506 299.715C263.581 279.356 307.593 221.727 307.593 153.797C307.593 68.8562 238.734 0 153.797 0Z" fill="#161614"/>
<path d="M57.6032 219.087C57.2654 219.851 56.0616 220.08 54.9676 219.557C53.8518 219.055 53.2246 218.013 53.5865 217.246C53.9182 216.459 55.122 216.24 56.2353 216.768C57.3535 217.269 57.9904 218.32 57.6032 219.087V219.087ZM65.1685 225.837C64.4352 226.518 63.001 226.202 62.0276 225.127C61.0216 224.055 60.8334 222.622 61.5776 221.931C62.3339 221.251 63.7247 221.569 64.7331 222.642C65.7391 223.727 65.9345 225.151 65.1673 225.839L65.1685 225.837ZM70.3589 234.474C69.4156 235.129 67.8741 234.515 66.9224 233.147C65.9803 231.78 65.9803 230.14 66.9429 229.483C67.8982 228.825 69.4156 229.416 70.3806 230.773C71.3214 232.164 71.3214 233.804 70.3576 234.475L70.3589 234.474ZM79.1353 244.477C78.2921 245.406 76.4973 245.157 75.1825 243.888C73.8388 242.648 73.4636 240.888 74.3092 239.958C75.162 239.027 76.9677 239.289 78.2921 240.547C79.6274 241.785 80.0351 243.558 79.1365 244.477H79.1353ZM90.4785 247.854C90.1082 249.058 88.3785 249.606 86.6367 249.094C84.8973 248.567 83.7587 247.156 84.1097 245.939C84.4715 244.727 86.2085 244.156 87.9635 244.704C89.7005 245.228 90.8415 246.629 90.4797 247.854H90.4785ZM103.39 249.286C103.433 250.555 101.956 251.607 100.127 251.63C98.2875 251.669 96.8002 250.643 96.7809 249.396C96.7809 248.115 98.2248 247.073 100.063 247.042C101.892 247.006 103.39 248.026 103.39 249.286V249.286ZM116.072 248.8C116.291 250.037 115.02 251.309 113.205 251.647C111.42 251.972 109.767 251.209 109.539 249.982C109.317 248.713 110.613 247.443 112.394 247.114C114.213 246.798 115.84 247.542 116.072 248.8" fill="#161614"/>
</svg>
