<svg width="65" height="29" viewBox="0 0 65 29" fill="none" xmlns="http://www.w3.org/2000/svg">
<path d="M6.24031 27.9848C5.93302 27.9848 5.69664 27.9133 5.53118 27.7703C5.36572 27.6274 5.22389 27.401 5.10571 27.0913L0.0709126 10.5077L0 10.1503C0 9.93585 0.0709126 9.75715 0.212738 9.61419C0.3782 9.47122 0.555482 9.39974 0.744582 9.39974H2.30466C2.54103 9.39974 2.73013 9.47122 2.87196 9.61419C3.03742 9.73332 3.14379 9.86437 3.19107 10.0073L7.12671 23.4815L11.346 10.1503C11.3933 9.95968 11.4997 9.79289 11.6651 9.64993C11.8306 9.48314 12.0551 9.39974 12.3388 9.39974H13.5443C13.828 9.39974 14.0525 9.48314 14.218 9.64993C14.3834 9.79289 14.4898 9.95968 14.5371 10.1503L18.7564 23.4815L22.692 10.0073C22.7157 9.8882 22.7984 9.75715 22.9402 9.61419C23.1057 9.47122 23.3066 9.39974 23.543 9.39974H25.1385C25.3276 9.39974 25.4931 9.47122 25.6349 9.61419C25.7767 9.75715 25.8476 9.93585 25.8476 10.1503L25.7767 10.5077L20.7774 27.0913C20.6592 27.401 20.5174 27.6274 20.3519 27.7703C20.1864 27.9133 19.9383 27.9848 19.6073 27.9848H18.2245C17.5863 27.9848 17.1963 27.687 17.0545 27.0913L12.9415 14.2962L8.82862 27.0913C8.63952 27.687 8.23768 27.9848 7.6231 27.9848H6.24031Z" fill="#F1F1F1"/>
<path d="M6.24031 27.9848C5.93302 27.9848 5.69664 27.9133 5.53118 27.7703C5.36572 27.6274 5.22389 27.401 5.10571 27.0913L0.0709126 10.5077L0 10.1503C0 9.93585 0.0709126 9.75715 0.212738 9.61419C0.3782 9.47122 0.555482 9.39974 0.744582 9.39974H2.30466C2.54103 9.39974 2.73013 9.47122 2.87196 9.61419C3.03742 9.73332 3.14379 9.86437 3.19107 10.0073L7.12671 23.4815L11.346 10.1503C11.3933 9.95968 11.4997 9.79289 11.6651 9.64993C11.8306 9.48314 12.0551 9.39974 12.3388 9.39974H13.5443C13.828 9.39974 14.0525 9.48314 14.218 9.64993C14.3834 9.79289 14.4898 9.95968 14.5371 10.1503L18.7564 23.4815L22.692 10.0073C22.7157 9.8882 22.7984 9.75715 22.9402 9.61419C23.1057 9.47122 23.3066 9.39974 23.543 9.39974H25.1385C25.3276 9.39974 25.4931 9.47122 25.6349 9.61419C25.7767 9.75715 25.8476 9.93585 25.8476 10.1503L25.7767 10.5077L20.7774 27.0913C20.6592 27.401 20.5174 27.6274 20.3519 27.7703C20.1864 27.9133 19.9383 27.9848 19.6073 27.9848H18.2245C17.5863 27.9848 17.1963 27.687 17.0545 27.0913L12.9415 14.2962L8.82862 27.0913C8.63952 27.687 8.23768 27.9848 7.6231 27.9848H6.24031Z" fill="#191919"/>
<path d="M30.8827 25.13H44.0459V27.9848H27.7315V24.7681C27.7315 22.4361 27.798 20.7607 27.931 19.7421C28.0639 18.6967 28.3963 17.8524 28.9282 17.209C29.4866 16.5389 30.4173 15.8822 31.7204 15.2388L38.0626 12.1428C39.2061 11.6067 39.9506 11.017 40.2963 10.3737C40.6686 9.73034 40.8548 8.73855 40.8548 7.39828C40.8548 6.05801 40.6819 5.07961 40.3362 4.46309C40.0171 3.81976 39.472 3.39088 38.7008 3.17643C37.9296 2.96199 36.7463 2.85477 35.1508 2.85477C33.1563 2.85477 30.8428 3.0156 28.2102 3.33727V0.64333C29.1941 0.455691 30.4173 0.308262 31.8799 0.20104C33.3691 0.0670133 34.7519 0 36.0283 0C37.81 0 39.246 0.160832 40.3362 0.482497C41.4531 0.777356 42.344 1.43409 43.0088 2.45269C43.7002 3.47129 44.0459 4.9992 44.0459 7.03641C44.0459 8.59111 43.8996 9.83756 43.6071 10.7758C43.3412 11.6871 42.9157 12.4377 42.3307 13.0274C41.7456 13.5903 40.908 14.1398 39.8177 14.6759L32.7575 18.0534C31.9597 18.4555 31.4544 18.938 31.2417 19.5009C31.0821 19.8762 30.9758 20.3319 30.9226 20.868C30.896 21.3773 30.8827 22.1546 30.8827 23.2V25.13Z" fill="#F1F1F1"/>
<path d="M30.8827 25.13H44.0459V27.9848H27.7315V24.7681C27.7315 22.4361 27.798 20.7607 27.931 19.7421C28.0639 18.6967 28.3963 17.8524 28.9282 17.209C29.4866 16.5389 30.4173 15.8822 31.7204 15.2388L38.0626 12.1428C39.2061 11.6067 39.9506 11.017 40.2963 10.3737C40.6686 9.73034 40.8548 8.73855 40.8548 7.39828C40.8548 6.05801 40.6819 5.07961 40.3362 4.46309C40.0171 3.81976 39.472 3.39088 38.7008 3.17643C37.9296 2.96199 36.7463 2.85477 35.1508 2.85477C33.1563 2.85477 30.8428 3.0156 28.2102 3.33727V0.64333C29.1941 0.455691 30.4173 0.308262 31.8799 0.20104C33.3691 0.0670133 34.7519 0 36.0283 0C37.81 0 39.246 0.160832 40.3362 0.482497C41.4531 0.777356 42.344 1.43409 43.0088 2.45269C43.7002 3.47129 44.0459 4.9992 44.0459 7.03641C44.0459 8.59111 43.8996 9.83756 43.6071 10.7758C43.3412 11.6871 42.9157 12.4377 42.3307 13.0274C41.7456 13.5903 40.908 14.1398 39.8177 14.6759L32.7575 18.0534C31.9597 18.4555 31.4544 18.938 31.2417 19.5009C31.0821 19.8762 30.9758 20.3319 30.9226 20.868C30.896 21.3773 30.8827 22.1546 30.8827 23.2V25.13Z" fill="#191919"/>
<path d="M56.0251 28.3065C53.1 28.3065 51.0391 27.958 49.8424 27.261C48.6458 26.5373 47.8879 25.2774 47.5688 23.4815C47.2497 21.6855 47.0901 18.5761 47.0901 14.1532C47.0901 9.73034 47.2497 6.62092 47.5688 4.82496C47.8879 3.02901 48.6458 1.78256 49.8424 1.08562C51.0391 0.361872 53.1 0 56.0251 0C58.9769 0 61.0511 0.361872 62.2477 1.08562C63.4709 1.78256 64.2288 3.02901 64.5213 4.82496C64.8404 6.62092 65 9.73034 65 14.1532C65 18.5761 64.8404 21.6855 64.5213 23.4815C64.2022 25.2774 63.4311 26.5373 62.2078 27.261C61.0112 27.958 58.9503 28.3065 56.0251 28.3065ZM56.0251 25.4517C58.0461 25.4517 59.4023 25.264 60.0937 24.8888C60.8117 24.4867 61.2771 23.5887 61.4898 22.1948C61.7026 20.7741 61.8089 18.0936 61.8089 14.1532C61.8089 10.2128 61.7026 7.54571 61.4898 6.15183C61.2771 4.73115 60.8117 3.83317 60.0937 3.45789C59.4023 3.05581 58.0461 2.85477 56.0251 2.85477C54.0041 2.85477 52.6346 3.05581 51.9166 3.45789C51.2252 3.83317 50.7732 4.73115 50.5604 6.15183C50.3477 7.54571 50.2413 10.2128 50.2413 14.1532C50.2413 18.0936 50.3477 20.7741 50.5604 22.1948C50.7732 23.5887 51.2252 24.4867 51.9166 24.8888C52.6346 25.264 54.0041 25.4517 56.0251 25.4517Z" fill="#F1F1F1"/>
<path d="M56.0251 28.3065C53.1 28.3065 51.0391 27.958 49.8424 27.261C48.6458 26.5373 47.8879 25.2774 47.5688 23.4815C47.2497 21.6855 47.0901 18.5761 47.0901 14.1532C47.0901 9.73034 47.2497 6.62092 47.5688 4.82496C47.8879 3.02901 48.6458 1.78256 49.8424 1.08562C51.0391 0.361872 53.1 0 56.0251 0C58.9769 0 61.0511 0.361872 62.2477 1.08562C63.4709 1.78256 64.2288 3.02901 64.5213 4.82496C64.8404 6.62092 65 9.73034 65 14.1532C65 18.5761 64.8404 21.6855 64.5213 23.4815C64.2022 25.2774 63.4311 26.5373 62.2078 27.261C61.0112 27.958 58.9503 28.3065 56.0251 28.3065ZM56.0251 25.4517C58.0461 25.4517 59.4023 25.264 60.0937 24.8888C60.8117 24.4867 61.2771 23.5887 61.4898 22.1948C61.7026 20.7741 61.8089 18.0936 61.8089 14.1532C61.8089 10.2128 61.7026 7.54571 61.4898 6.15183C61.2771 4.73115 60.8117 3.83317 60.0937 3.45789C59.4023 3.05581 58.0461 2.85477 56.0251 2.85477C54.0041 2.85477 52.6346 3.05581 51.9166 3.45789C51.2252 3.83317 50.7732 4.73115 50.5604 6.15183C50.3477 7.54571 50.2413 10.2128 50.2413 14.1532C50.2413 18.0936 50.3477 20.7741 50.5604 22.1948C50.7732 23.5887 51.2252 24.4867 51.9166 24.8888C52.6346 25.264 54.0041 25.4517 56.0251 25.4517Z" fill="#191919"/>
</svg>
