<svg width="100" height="100" viewBox="0 0 100 100" fill="none" xmlns="http://www.w3.org/2000/svg">
<rect width="100" height="100" rx="20" fill="#191919"/>
<path d="M24.2403 63.9848C23.933 63.9848 23.6966 63.9133 23.5312 63.7703C23.3657 63.6274 23.2239 63.401 23.1057 63.0913L18.0709 46.5077L18 46.1503C18 45.9359 18.0709 45.7571 18.2127 45.6142C18.3782 45.4712 18.5555 45.3997 18.7446 45.3997H20.3047C20.541 45.3997 20.7301 45.4712 20.872 45.6142C21.0374 45.7333 21.1438 45.8644 21.1911 46.0073L25.1267 59.4815L29.346 46.1503C29.3933 45.9597 29.4997 45.7929 29.6651 45.6499C29.8306 45.4831 30.0551 45.3997 30.3388 45.3997H31.5443C31.828 45.3997 32.0525 45.4831 32.218 45.6499C32.3834 45.7929 32.4898 45.9597 32.5371 46.1503L36.7564 59.4815L40.692 46.0073C40.7157 45.8882 40.7984 45.7571 40.9402 45.6142C41.1057 45.4712 41.3066 45.3997 41.543 45.3997H43.1385C43.3276 45.3997 43.4931 45.4712 43.6349 45.6142C43.7767 45.7571 43.8476 45.9359 43.8476 46.1503L43.7767 46.5077L38.7774 63.0913C38.6592 63.401 38.5174 63.6274 38.3519 63.7703C38.1864 63.9133 37.9383 63.9848 37.6073 63.9848H36.2245C35.5863 63.9848 35.1963 63.687 35.0545 63.0913L30.9415 50.2962L26.8286 63.0913C26.6395 63.687 26.2377 63.9848 25.6231 63.9848H24.2403Z" fill="#F1F1F1"/>
<path d="M48.8827 61.13H62.0459V63.9848H45.7315V60.7681C45.7315 58.4361 45.798 56.7607 45.931 55.7421C46.0639 54.6967 46.3963 53.8524 46.9282 53.209C47.4866 52.5389 48.4173 51.8822 49.7204 51.2388L56.0626 48.1428C57.2061 47.6067 57.9506 47.017 58.2963 46.3737C58.6686 45.7303 58.8548 44.7385 58.8548 43.3983C58.8548 42.058 58.6819 41.0796 58.3362 40.4631C58.0171 39.8198 57.472 39.3909 56.7008 39.1764C55.9296 38.962 54.7463 38.8548 53.1508 38.8548C51.1563 38.8548 48.8428 39.0156 46.2102 39.3373V36.6433C47.1941 36.4557 48.4173 36.3083 49.8799 36.201C51.3691 36.067 52.7519 36 54.0283 36C55.81 36 57.246 36.1608 58.3362 36.4825C59.4531 36.7774 60.344 37.4341 61.0088 38.4527C61.7002 39.4713 62.0459 40.9992 62.0459 43.0364C62.0459 44.5911 61.8996 45.8376 61.6071 46.7758C61.3412 47.6871 60.9157 48.4377 60.3307 49.0274C59.7456 49.5903 58.908 50.1398 57.8177 50.6759L50.7575 54.0534C49.9597 54.4555 49.4544 54.938 49.2417 55.5009C49.0821 55.8762 48.9758 56.3319 48.9226 56.868C48.896 57.3773 48.8827 58.1546 48.8827 59.2V61.13Z" fill="#F1F1F1"/>
<path d="M74.0251 64.3065C71.1 64.3065 69.0391 63.958 67.8424 63.261C66.6458 62.5373 65.8879 61.2774 65.5688 59.4815C65.2497 57.6855 65.0901 54.5761 65.0901 50.1532C65.0901 45.7303 65.2497 42.6209 65.5688 40.825C65.8879 39.029 66.6458 37.7826 67.8424 37.0856C69.0391 36.3619 71.1 36 74.0251 36C76.9769 36 79.0511 36.3619 80.2477 37.0856C81.4709 37.7826 82.2288 39.029 82.5213 40.825C82.8404 42.6209 83 45.7303 83 50.1532C83 54.5761 82.8404 57.6855 82.5213 59.4815C82.2022 61.2774 81.4311 62.5373 80.2078 63.261C79.0112 63.958 76.9503 64.3065 74.0251 64.3065ZM74.0251 61.4517C76.0461 61.4517 77.4023 61.264 78.0937 60.8888C78.8117 60.4867 79.2771 59.5887 79.4898 58.1948C79.7026 56.7741 79.8089 54.0936 79.8089 50.1532C79.8089 46.2128 79.7026 43.5457 79.4898 42.1518C79.2771 40.7311 78.8117 39.8332 78.0937 39.4579C77.4023 39.0558 76.0461 38.8548 74.0251 38.8548C72.0041 38.8548 70.6346 39.0558 69.9166 39.4579C69.2252 39.8332 68.7732 40.7311 68.5604 42.1518C68.3477 43.5457 68.2413 46.2128 68.2413 50.1532C68.2413 54.0936 68.3477 56.7741 68.5604 58.1948C68.7732 59.5887 69.2252 60.4867 69.9166 60.8888C70.6346 61.264 72.0041 61.4517 74.0251 61.4517Z" fill="#F1F1F1"/>
</svg>
