<svg width="120" height="36" viewBox="0 0 120 36" fill="none" xmlns="http://www.w3.org/2000/svg">
<path d="M6.45324 28.7096C6.13547 28.7096 5.89103 28.6363 5.71992 28.4896C5.54881 28.3429 5.40214 28.1107 5.27992 27.7929L0.0733323 10.7798L0 10.4132C0 10.1932 0.0733323 10.0099 0.219997 9.86319C0.391105 9.71653 0.574436 9.64319 0.769989 9.64319H2.3833C2.62774 9.64319 2.82329 9.71653 2.96996 9.86319C3.14107 9.98541 3.25106 10.1199 3.29995 10.2665L7.36989 24.0897L11.7332 10.4132C11.7821 10.2176 11.8921 10.0465 12.0632 9.89986C12.2343 9.72875 12.4665 9.64319 12.7598 9.64319H14.0065C14.2998 9.64319 14.532 9.72875 14.7031 9.89986C14.8742 10.0465 14.9842 10.2176 15.0331 10.4132L19.3964 24.0897L23.4663 10.2665C23.4908 10.1443 23.5763 10.0099 23.723 9.86319C23.8941 9.71653 24.1019 9.64319 24.3463 9.64319H25.9963C26.1918 9.64319 26.363 9.71653 26.5096 9.86319C26.6563 10.0099 26.7296 10.1932 26.7296 10.4132L26.6563 10.7798L21.4864 27.7929C21.3641 28.1107 21.2175 28.3429 21.0464 28.4896C20.8753 28.6363 20.6186 28.7096 20.2764 28.7096H18.8464C18.1864 28.7096 17.7831 28.404 17.6364 27.7929L13.3831 14.6665L9.12987 27.7929C8.93432 28.404 8.51877 28.7096 7.88322 28.7096H6.45324Z" fill="#191919"/>
<path d="M29.8007 28.7096C29.5562 28.7096 29.3485 28.6363 29.1774 28.4896C29.0307 28.3185 28.9574 28.1107 28.9574 27.8663V10.5232C28.9574 10.2787 29.0307 10.071 29.1774 9.89986C29.3485 9.72875 29.5562 9.64319 29.8007 9.64319H31.4873C31.7318 9.64319 31.9395 9.72875 32.1107 9.89986C32.2818 10.071 32.3673 10.2787 32.3673 10.5232V12.1365C33.3695 10.4743 35.0806 9.64319 37.5006 9.64319H38.9306C39.175 9.64319 39.3706 9.72875 39.5172 9.89986C39.6883 10.0465 39.7739 10.2421 39.7739 10.4865V11.9898C39.7739 12.2343 39.6883 12.4298 39.5172 12.5765C39.3706 12.7232 39.175 12.7965 38.9306 12.7965H36.7306C35.4106 12.7965 34.3717 13.1876 33.614 13.9698C32.8562 14.7276 32.4773 15.7664 32.4773 17.0864V27.8663C32.4773 28.1107 32.3918 28.3185 32.2207 28.4896C32.0495 28.6363 31.8418 28.7096 31.5973 28.7096H29.8007Z" fill="#191919"/>
<path d="M46.083 29.0762C44.8853 29.0762 43.7731 28.8318 42.7464 28.3429C41.7198 27.854 40.9009 27.1941 40.2898 26.363C39.7031 25.5074 39.4098 24.5663 39.4098 23.5397C39.4098 21.9264 40.0698 20.6064 41.3898 19.5797C42.7342 18.5286 44.5431 17.8442 46.8164 17.5264L52.2796 16.7564V15.6931C52.2796 13.1998 50.8496 11.9532 47.9897 11.9532C46.9141 11.9532 46.0341 12.1854 45.3497 12.6498C44.6653 13.0898 44.1519 13.6154 43.8097 14.2265C43.7364 14.4465 43.6386 14.6053 43.5164 14.7031C43.4186 14.8009 43.272 14.8498 43.0764 14.8498H41.4998C41.2798 14.8498 41.0842 14.7765 40.9131 14.6298C40.7664 14.4587 40.6931 14.2631 40.6931 14.0431C40.7176 13.4565 40.9864 12.7965 41.4998 12.0632C42.0375 11.3054 42.8564 10.6576 43.9564 10.1199C45.0564 9.55764 46.413 9.27653 48.0263 9.27653C50.7641 9.27653 52.7318 9.9243 53.9296 11.2198C55.1274 12.4909 55.7262 14.0798 55.7262 15.9864V27.8663C55.7262 28.1107 55.6407 28.3185 55.4696 28.4896C55.3229 28.6363 55.1274 28.7096 54.8829 28.7096H53.1963C52.9518 28.7096 52.7441 28.6363 52.5729 28.4896C52.4263 28.3185 52.3529 28.1107 52.3529 27.8663V26.2896C51.8152 27.0718 51.033 27.7318 50.0063 28.2696C48.9797 28.8074 47.6719 29.0762 46.083 29.0762ZM46.853 26.3263C48.4419 26.3263 49.7374 25.813 50.7396 24.7863C51.7663 23.7352 52.2796 22.2319 52.2796 20.2764V19.2497L48.0263 19.873C46.2908 20.1175 44.9831 20.533 44.1031 21.1197C43.2231 21.6819 42.7831 22.403 42.7831 23.283C42.7831 24.2608 43.1864 25.0185 43.9931 25.5563C44.7997 26.0696 45.753 26.3263 46.853 26.3263Z" fill="#191919"/>
<path d="M60.044 35.6762C59.7995 35.6762 59.5917 35.5906 59.4206 35.4195C59.274 35.2728 59.2006 35.0773 59.2006 34.8328V10.4865C59.2006 10.2421 59.274 10.0465 59.4206 9.89986C59.5917 9.72875 59.7995 9.64319 60.044 9.64319H61.7306C61.975 9.64319 62.1706 9.72875 62.3173 9.89986C62.4884 10.0465 62.5739 10.2421 62.5739 10.4865V12.0998C63.9428 10.2176 65.9472 9.27653 68.5872 9.27653C71.1538 9.27653 73.0727 10.0832 74.3437 11.6965C75.6393 13.3098 76.3359 15.3876 76.4337 17.9297C76.4582 18.1986 76.4704 18.6142 76.4704 19.1764C76.4704 19.7386 76.4582 20.1542 76.4337 20.423C76.3359 22.9408 75.6393 25.0185 74.3437 26.6563C73.0482 28.2696 71.1294 29.0762 68.5872 29.0762C66.045 29.0762 64.065 28.1596 62.6473 26.3263V34.8328C62.6473 35.0773 62.5739 35.2728 62.4273 35.4195C62.2806 35.5906 62.085 35.6762 61.8406 35.6762H60.044ZM67.8172 26.1063C69.5527 26.1063 70.8116 25.5685 71.5938 24.493C72.4004 23.4174 72.8404 21.9997 72.9138 20.2397C72.9382 19.9953 72.9504 19.6408 72.9504 19.1764C72.9504 14.5565 71.2393 12.2465 67.8172 12.2465C66.1305 12.2465 64.8594 12.8087 64.0039 13.9331C63.1728 15.0331 62.7206 16.3531 62.6473 17.8931L62.6106 19.2864L62.6473 20.7164C62.6961 22.1586 63.1606 23.4174 64.0406 24.493C64.9206 25.5685 66.1794 26.1063 67.8172 26.1063Z" fill="#191919"/>
<path d="M84.7185 25.7809H98.3308V28.7096H81.4598V25.4096C81.4598 23.0172 81.5286 21.2984 81.6661 20.2535C81.8036 19.181 82.1473 18.3147 82.6973 17.6547C83.2748 16.9673 84.2373 16.2935 85.5848 15.6335L92.1434 12.4573C93.3259 11.9073 94.0959 11.3023 94.4534 10.6423C94.8384 9.98236 95.0309 8.96487 95.0309 7.58989C95.0309 6.21491 94.8522 5.21117 94.4947 4.57868C94.1647 3.91869 93.6009 3.4787 92.8034 3.2587C92.0059 3.03871 90.7822 2.92871 89.1322 2.92871C87.0698 2.92871 84.6773 3.09371 81.9548 3.4237V0.659992C82.9723 0.467494 84.2373 0.316245 85.7498 0.206247C87.2898 0.0687489 88.7197 0 90.0397 0C91.8822 0 93.3672 0.164998 94.4947 0.494994C95.6496 0.797489 96.5709 1.47123 97.2584 2.51621C97.9734 3.5612 98.3308 5.12868 98.3308 7.21865C98.3308 8.81362 98.1796 10.0924 97.8771 11.0548C97.6021 11.9898 97.1621 12.7598 96.5571 13.3648C95.9521 13.9423 95.0859 14.506 93.9584 15.056L86.6573 18.521C85.8323 18.9335 85.3098 19.4285 85.0898 20.006C84.9248 20.391 84.8148 20.8585 84.7598 21.4084C84.7323 21.9309 84.7185 22.7284 84.7185 23.8009V25.7809Z" fill="#191919"/>
<path d="M110.719 29.0396C107.694 29.0396 105.563 28.6821 104.325 27.9671C103.088 27.2246 102.304 25.9321 101.974 24.0897C101.644 22.2472 101.479 19.0572 101.479 14.5198C101.479 9.98236 101.644 6.7924 101.974 4.94993C102.304 3.10746 103.088 1.82872 104.325 1.11373C105.563 0.371245 107.694 0 110.719 0C113.771 0 115.916 0.371245 117.154 1.11373C118.419 1.82872 119.203 3.10746 119.505 4.94993C119.835 6.7924 120 9.98236 120 14.5198C120 19.0572 119.835 22.2472 119.505 24.0897C119.175 25.9321 118.378 27.2246 117.113 27.9671C115.875 28.6821 113.744 29.0396 110.719 29.0396ZM110.719 26.1109C112.809 26.1109 114.211 25.9184 114.926 25.5334C115.669 25.1209 116.15 24.1997 116.37 22.7697C116.59 21.3122 116.7 18.5622 116.7 14.5198C116.7 10.4773 116.59 7.74114 116.37 6.31116C116.15 4.85368 115.669 3.93244 114.926 3.54745C114.211 3.13496 112.809 2.92871 110.719 2.92871C108.629 2.92871 107.213 3.13496 106.47 3.54745C105.755 3.93244 105.288 4.85368 105.068 6.31116C104.848 7.74114 104.738 10.4773 104.738 14.5198C104.738 18.5622 104.848 21.3122 105.068 22.7697C105.288 24.1997 105.755 25.1209 106.47 25.5334C107.213 25.9184 108.629 26.1109 110.719 26.1109Z" fill="#191919"/>
</svg>
